<svg id="Layer_1" enable-background="new 0 0 512 512" height="512" viewBox="0 0 512 512" width="512" xmlns="http://www.w3.org/2000/svg"><g><path d="m386.873 199.779c-1.973 0-3.947-.182-5.867-.54-13.724-2.563-23.685-14.883-23.685-29.293 0-27.211-10.636-53.932-29.948-73.102-17.339-17.212-39.769-27.388-63.873-29.138v-33.245c0-4.147 2.785-7.839 6.774-8.976l37.782-10.772c3.983-1.136 6.292-5.286 5.156-9.27-1.137-3.982-5.281-6.286-9.27-5.156l-37.781 10.773c-10.399 2.965-17.661 12.588-17.661 23.401v33.261c-52.317 3.906-93.82 48.403-93.82 102.224 0 14.41-9.961 26.729-23.685 29.293-1.92.358-3.895.54-5.867.54-4.143 0-7.5 3.357-7.5 7.5s3.357 7.5 7.5 7.5h14.552l27.318 254.306c-5.424 2.908-9.123 8.624-9.123 15.19 0 15.287 12.464 27.725 27.784 27.725h140.691c15.32 0 27.784-12.438 27.784-27.725 0-6.569-3.703-12.287-9.132-15.194l27.319-254.302h14.552c4.143 0 7.5-3.357 7.5-7.5s-3.358-7.5-7.5-7.5zm-123.373-117.011c20.082 1.725 38.805 10.328 53.306 24.722 10.08 10.006 17.37 22.055 21.518 35.215-4.193-1.844-8.925-2.829-14.076-2.829-7.376 0-14.321 2.378-19.969 6.647-8.124-11.652-23.282-19.863-40.779-21.71zm-15-.001v42.046c-17.496 1.847-32.654 10.059-40.778 21.711-5.647-4.27-12.593-6.648-19.97-6.648-5.051 0-9.606.806-13.618 2.374 10.719-32.358 39.663-56.43 74.366-59.483zm-78.84 88.013c2.063-10.985 7.654-15.904 18.091-15.904 6.399 0 12.208 3.271 15.539 8.748 1.565 2.575 4.526 3.964 7.501 3.523 2.981-.439 5.41-2.62 6.167-5.537 3.282-12.652 20.065-22.193 39.041-22.193s35.761 9.541 39.042 22.192c.757 2.917 3.186 5.098 6.167 5.537 2.979.438 5.936-.947 7.501-3.523 3.331-5.478 9.14-8.747 15.538-8.747 13.034 0 16.931 9.697 18.091 15.839.184 11.062 4.307 21.271 11.122 29.064h-194.92c6.801-7.778 10.921-17.962 11.12-28.999zm156.69 326.22h-140.692c-7.049 0-12.784-5.708-12.784-12.725 0-1.067.93-2.232 1.989-2.232h100.22c4.143 0 7.5-3.357 7.5-7.5s-3.357-7.5-7.5-7.5h-93.219l-5.792-53.915h159.855l-5.792 53.915h-19.961c-4.143 0-7.5 3.357-7.5 7.5s3.357 7.5 7.5 7.5h26.646.037.015c1.247 0 2.262 1.002 2.262 2.232 0 7.017-5.735 12.725-12.784 12.725zm24.99-227.349h-122.407c-4.143 0-7.5 3.357-7.5 7.5s3.357 7.5 7.5 7.5h120.796l-12.19 113.477h-163.078l-12.19-113.477h31.992c4.143 0 7.5-3.357 7.5-7.5s-3.357-7.5-7.5-7.5h-33.603l-5.894-54.872h202.47z"/><path d="m218.078 333.522h75.844c4.143 0 7.5-3.357 7.5-7.5s-3.357-7.5-7.5-7.5h-75.844c-4.143 0-7.5 3.357-7.5 7.5s3.357 7.5 7.5 7.5z"/><path d="m278.465 348.375h-45.844c-4.143 0-7.5 3.357-7.5 7.5s3.357 7.5 7.5 7.5h45.844c4.143 0 7.5-3.357 7.5-7.5s-3.357-7.5-7.5-7.5z"/></g></svg>