<?xml version="1.0" encoding="iso-8859-1"?>
<!-- Generator: Adobe Illustrator 19.0.0, SVG Export Plug-In . SVG Version: 6.00 Build 0)  -->
<svg version="1.1" id="Capa_1" xmlns="http://www.w3.org/2000/svg" xmlns:xlink="http://www.w3.org/1999/xlink" x="0px" y="0px"
	 viewBox="0 0 478.944 478.944" style="enable-background:new 0 0 478.944 478.944;" xml:space="preserve">
<g>
	<g>
		<path d="M391.472,86.944h-144v-43.36l52-29.696l-8-13.888l-56,32c-2.48,1.432-4.006,4.08-4,6.944v48h-144c-4.418,0-8,3.582-8,8v40
			c0,4.418,3.582,8,8,8h16.888l15.2,128.936c0.211,1.786,1.017,3.449,2.288,4.72l13.936,13.936l15.688,181.104
			c0.362,4.144,3.84,7.32,8,7.304h160c4.16,0.016,7.638-3.16,8-7.304l15.752-181.104L357.16,276.6
			c1.271-1.271,2.077-2.934,2.288-4.72l15.136-128.936h16.888c4.418,0,8-3.582,8-8v-40C399.472,90.526,395.89,86.944,391.472,86.944
			z M210.528,462.944h-43.72l-15.336-176.696c-0.159-1.875-0.978-3.633-2.312-4.96l-14.032-14.04l-14.656-124.304h114.44
			l-21.6,46.232c-19.363,41.41-16.853,89.739,6.696,128.92c21.483,35.586,23.187,79.711,4.512,116.848L210.528,462.944z
			 M228.416,462.944l10.4-20.8c21.146-42.029,19.228-91.973-5.08-132.256c-20.806-34.62-23.026-77.322-5.92-113.912l24.752-53.032
			h59.112l-36.272,49.464c-27.656,37.602-29.988,88.147-5.912,128.136c19.746,33.122,18.757,74.632-2.544,106.776l-23.76,35.624
			H228.416z M343.848,267.248l-14.032,14.04c-1.334,1.327-2.153,3.085-2.312,4.96l-15.368,176.696h-49.712l17.84-26.768
			c24.714-37.293,25.862-85.452,2.952-123.88c-20.738-34.456-18.728-78.001,5.096-110.4l43.216-58.952h26.944L343.848,267.248z
			 M383.472,126.944h-288v-24h288V126.944z"/>
	</g>
</g>
<g>
</g>
<g>
</g>
<g>
</g>
<g>
</g>
<g>
</g>
<g>
</g>
<g>
</g>
<g>
</g>
<g>
</g>
<g>
</g>
<g>
</g>
<g>
</g>
<g>
</g>
<g>
</g>
<g>
</g>
</svg>
