<svg height="512pt" viewBox="-41 0 511 512" width="512pt" xmlns="http://www.w3.org/2000/svg"><path d="m408.832031 59.9375h-16.964843l-19.269532-45.457031c-3.730468-8.796875-12.3125-14.480469-21.867187-14.480469h-272.460938c-9.554687 0-18.136719 5.683594-21.867187 14.480469l-19.269532 45.457031h-16.964843c-10.847657 0-19.667969 8.824219-19.667969 19.667969v44.726562c0 10.847657 8.820312 19.667969 19.667969 19.667969h12.714843l47.851563 347.488281c1.609375 11.691407 11.726563 20.511719 23.53125 20.511719h220.46875c11.804687 0 21.921875-8.816406 23.53125-20.511719l47.851563-347.488281h12.714843c10.847657 0 19.667969-8.820312 19.667969-19.667969v-44.726562c0-10.84375-8.820312-19.667969-19.667969-19.667969zm-80.378906 428.820312c-.253906 1.847657-1.851563 3.242188-3.71875 3.242188h-220.46875c-1.867187 0-3.464844-1.394531-3.71875-3.242188l-47.476563-344.757812h322.859376zm80.046875-364.757812h-388v-44.0625h23.195312.101563 201.445313c5.523437 0 10-4.476562 10-10s-4.476563-10-10-10h-186.386719l15.960937-37.648438c.585938-1.390624 1.945313-2.289062 3.453125-2.289062h272.460938c1.507812 0 2.863281.898438 3.453125 2.289062l15.960937 37.648438h-44.902343c-5.523438 0-10 4.476562-10 10s4.476562 10 10 10h59.972656c.011718 0 .019531.003906.03125.003906.015625 0 .035156-.003906.050781-.003906h23.203125zm0 0"/><path d="m106.5 311.816406c0 59.550782 48.449219 108 108 108s108-48.449218 108-108c0-59.550781-48.449219-108-108-108s-108 48.449219-108 108zm108-88c48.523438 0 88 39.476563 88 88 0 48.523438-39.476562 88-88 88s-88-39.476562-88-88c0-48.523437 39.476562-88 88-88zm0 0"/><path d="m166.417969 359.898438c12.84375 12.84375 29.917969 19.917968 48.082031 19.917968s35.238281-7.074218 48.082031-19.917968 19.917969-29.917969 19.917969-48.082032c0-18.164062-7.074219-35.242187-19.917969-48.082031-12.84375-12.84375-29.917969-19.917969-48.082031-19.917969s-35.238281 7.074219-48.082031 19.917969c-12.84375 12.839844-19.917969 29.917969-19.917969 48.082031 0 18.164063 7.074219 35.238282 19.917969 48.082032zm82.023437-14.140626c-9.066406 9.066407-21.121094 14.058594-33.941406 14.058594-10.917969 0-21.269531-3.632812-29.703125-10.304687 1.074219-15.453125 13.980469-27.695313 29.703125-27.695313 19.535156 0 36.472656-11.316406 44.617188-27.734375 2.214843 5.570313 3.382812 11.5625 3.382812 17.734375 0 12.820313-4.992188 24.875-14.058594 33.941406zm-67.882812-67.882812c9.066406-9.066406 21.121094-14.058594 33.941406-14.058594 10.917969 0 21.269531 3.628906 29.703125 10.304688-1.074219 15.449218-13.980469 27.695312-29.703125 27.695312-19.535156 0-36.472656 11.316406-44.617188 27.734375-2.214843-5.570312-3.382812-11.5625-3.382812-17.734375 0-12.820312 4.992188-24.875 14.058594-33.941406zm0 0"/><path d="m285.238281 59.941406c-2.628906 0-5.207031 1.070313-7.066406 2.929688-1.863281 1.859375-2.933594 4.429687-2.933594 7.070312 0 2.628906 1.070313 5.207032 2.933594 7.070313 1.859375 1.859375 4.4375 2.929687 7.066406 2.929687 2.632813 0 5.210938-1.070312 7.070313-2.929687 1.871094-1.863281 2.929687-4.441407 2.929687-7.070313 0-2.632812-1.058593-5.210937-2.929687-7.070312-1.859375-1.859375-4.429688-2.929688-7.070313-2.929688zm0 0"/></svg>